<?xml version="1.0" standalone="no"?>
<!DOCTYPE svg PUBLIC "-//W3C//DTD SVG 20010904//EN"
 "http://www.w3.org/TR/2001/REC-SVG-20010904/DTD/svg10.dtd">
<svg version="1.0" xmlns="http://www.w3.org/2000/svg"
 width="400.000000pt" height="400.000000pt" viewBox="0 0 400.000000 400.000000"
 preserveAspectRatio="xMidYMid meet">

<g transform="translate(0.000000,400.000000) scale(0.100000,-0.100000)"
fill="#000000" stroke="none">
<path d="M0 2000 l0 -2000 2000 0 2000 0 0 2000 0 2000 -2000 0 -2000 0 0
-2000z m1771 1959 c-201 -21 -436 -91 -636 -188 -604 -295 -1025 -889 -1094
-1547 -5 -48 -9 282 -10 834 l-1 912 913 -1 c591 -1 882 -5 828 -10z m2208
-901 c-1 -587 -5 -893 -11 -858 -36 219 -54 301 -93 417 -186 558 -598 995
-1149 1217 -148 60 -354 111 -506 126 -41 4 338 8 843 9 l917 1 -1 -912z
m-1695 866 c807 -117 1463 -738 1626 -1537 96 -474 8 -983 -243 -1395 -85
-140 -169 -245 -291 -368 -342 -341 -750 -527 -1241 -564 -262 -20 -572 25
-835 123 -82 30 -263 121 -344 174 -448 289 -756 738 -861 1257 -110 547 13
1097 346 1546 88 119 266 298 387 389 419 317 938 450 1456 375z m-2208 -2353
c36 -160 75 -273 149 -428 193 -403 514 -725 919 -922 174 -84 440 -160 631
-180 48 -5 -280 -9 -832 -10 l-913 -1 1 913 c1 591 5 882 10 828 5 -47 21
-137 35 -200z m3904 -631 l0 -910 -917 1 c-555 1 -887 5 -839 10 206 22 441
88 631 178 594 282 1014 858 1101 1511 7 58 14 108 14 113 0 4 2 7 5 7 3 0 5
-409 5 -910z"/>
<path d="M1817 3793 c-2 -5 -1 -42 2 -83 l6 -75 141 -3 141 -3 6 53 c11 91 9
108 -13 108 -18 0 -20 -7 -20 -65 0 -62 -1 -65 -24 -65 -24 0 -25 1 -12 33 20
48 12 57 -51 57 l-55 0 6 -45 7 -45 -50 0 -51 0 0 54 c0 30 -3 61 -6 70 -6 17
-20 21 -27 9z m203 -80 c-1 -5 -7 -19 -14 -32 l-13 -24 -11 32 c-10 29 -10 31
14 31 13 0 24 -3 24 -7z"/>
<path d="M1752 3725 c4 -77 -16 -99 -30 -32 -8 41 -9 42 -46 41 -45 -2 -58
-17 -51 -61 5 -31 5 -31 -47 -42 -123 -26 -149 -35 -145 -50 1 -9 11 -15 21
-13 12 2 17 -2 14 -15 -2 -13 -12 -18 -33 -18 -24 0 -33 6 -44 33 -18 41 -46
45 -36 5 17 -72 67 -101 113 -66 15 11 28 32 30 46 2 14 11 28 20 31 31 10
194 36 222 36 42 0 50 17 43 98 -4 53 -10 72 -20 72 -12 0 -14 -14 -11 -65z
m-58 -47 c5 -24 3 -28 -14 -28 -14 0 -20 7 -20 24 0 13 6 26 13 29 15 5 13 8
21 -25z"/>
<path d="M2136 3744 c-9 -69 -7 -112 5 -119 16 -10 17 -7 24 83 6 69 5 82 -7
82 -11 0 -17 -15 -22 -46z"/>
<path d="M2293 3693 c-4 -9 -7 -34 -7 -56 l-1 -40 110 -27 c61 -16 137 -38
169 -49 33 -12 65 -21 73 -21 8 0 24 24 37 53 37 82 40 97 21 97 -8 0 -19 -10
-24 -22 -31 -81 -42 -101 -52 -91 -7 7 -3 26 11 62 24 62 24 67 6 74 -11 4
-21 -12 -36 -59 -12 -35 -23 -64 -26 -64 -2 0 -21 7 -41 15 -21 8 -64 21 -96
30 l-57 16 6 39 c5 32 3 40 -14 49 -31 17 -72 13 -79 -6z m59 -43 c-3 -29 -7
-34 -25 -27 -21 8 -10 59 12 55 10 -3 15 -12 13 -28z"/>
<path d="M2707 3568 c-33 -79 -35 -89 -19 -95 12 -5 72 114 72 143 0 35 -29 8
-53 -48z"/>
<path d="M1160 3584 c0 -4 14 -32 31 -62 43 -77 23 -92 -25 -18 -20 31 -40 56
-45 56 -22 0 -18 -18 14 -69 32 -51 36 -71 14 -71 -5 0 -25 25 -45 55 -19 31
-39 53 -44 50 -16 -10 -11 -28 20 -75 16 -25 27 -52 24 -62 -2 -9 0 -19 5 -22
11 -7 151 79 151 91 0 21 -69 128 -83 131 -10 2 -17 0 -17 -4z"/>
<path d="M1006 3561 c-10 -16 6 -42 21 -37 8 3 17 6 19 6 3 0 2 5 -1 10 -4 6
-11 8 -16 5 -5 -3 -6 1 -3 9 6 17 -11 22 -20 7z"/>
<path d="M2784 3549 c-4 -7 3 -19 16 -29 19 -15 21 -20 10 -39 -8 -16 -17 -20
-28 -15 -26 10 -47 10 -51 -1 -2 -5 38 -33 90 -61 52 -27 117 -65 146 -83 61
-39 94 -33 45 8 -28 24 -30 28 -17 45 13 17 18 18 41 7 36 -16 57 2 28 24 -47
37 -72 31 -104 -25 -17 -30 -23 1 -7 35 21 43 21 55 4 55 -8 0 -22 -16 -33
-35 -10 -19 -20 -35 -21 -35 -1 0 -18 9 -37 21 -35 21 -36 21 -20 51 19 37 14
52 -25 72 -22 12 -32 13 -37 5z"/>
<path d="M1470 3464 c0 -17 22 -14 28 4 2 7 -3 12 -12 12 -9 0 -16 -7 -16 -16z"/>
<path d="M1973 3473 c20 -2 54 -2 75 0 20 2 3 4 -38 4 -41 0 -58 -2 -37 -4z"/>
<path d="M1430 3455 c0 -8 7 -15 15 -15 8 0 15 7 15 15 0 8 -7 15 -15 15 -8 0
-15 -7 -15 -15z"/>
<path d="M1823 3463 c9 -2 23 -2 30 0 6 3 -1 5 -18 5 -16 0 -22 -2 -12 -5z"/>
<path d="M2158 3460 c70 -8 110 -20 64 -20 -12 0 -22 -4 -22 -10 0 -10 20 -14
53 -12 11 1 17 -5 17 -18 0 -21 -16 -28 -22 -10 -2 6 -8 2 -15 -8 -8 -14 -8
-19 0 -20 32 -2 112 -15 116 -18 2 -1 14 9 26 22 l24 25 12 -23 c7 -13 12 -27
11 -32 -2 -4 8 -6 21 -2 16 4 29 0 37 -9 7 -8 20 -15 30 -15 39 0 159 -44 223
-82 38 -22 66 -42 64 -44 -3 -3 -33 0 -68 6 -35 6 -114 17 -175 23 l-111 13
32 -33 c33 -34 55 -42 55 -21 0 6 7 4 18 -5 10 -10 30 -17 45 -17 45 0 330
-60 346 -73 27 -21 130 -131 127 -135 -2 -2 -50 8 -107 22 -115 27 -281 58
-286 52 -2 -2 5 -19 16 -38 20 -33 25 -35 147 -61 69 -16 171 -42 225 -59
l100 -32 39 -59 c39 -58 54 -101 28 -79 -24 19 -282 90 -440 120 l-48 10 0
-29 c0 -23 5 -29 21 -29 24 0 242 -54 319 -79 30 -10 90 -33 132 -51 76 -32
78 -33 98 -87 20 -53 24 -73 16 -73 -2 0 -26 9 -53 21 -83 36 -283 95 -405
120 -92 18 -119 27 -126 43 -7 16 -14 7 -44 -55 -55 -115 -166 -231 -325 -337
-29 -19 -53 -41 -53 -48 0 -17 16 -18 26 -3 8 14 84 7 250 -22 l122 -22 32 23
c24 17 29 25 19 31 -13 7 -159 31 -271 44 -27 4 -48 10 -48 16 0 5 4 9 8 9 4
0 39 25 76 56 l69 57 106 -22 c129 -27 292 -73 386 -108 94 -35 245 -111 245
-123 0 -6 6 -10 13 -10 7 0 23 -9 35 -20 18 -17 22 -32 22 -76 0 -53 -1 -55
-22 -48 -13 4 -25 10 -28 15 -9 14 -195 99 -282 129 -46 15 -92 31 -103 35
-17 7 -17 4 6 -21 14 -16 32 -40 41 -54 10 -16 45 -38 94 -59 75 -32 211 -110
263 -150 23 -17 23 -19 11 -89 -6 -40 -14 -72 -17 -72 -2 0 -25 16 -50 35 -25
19 -86 56 -137 81 l-91 47 -50 -22 -50 -23 115 -56 c102 -50 159 -85 224 -136
18 -15 18 -17 -4 -86 -12 -38 -26 -70 -31 -70 -5 0 -35 18 -67 39 -50 34 -173
97 -253 129 -15 6 -37 8 -50 5 -14 -4 -20 -2 -16 4 7 12 -34 33 -64 33 -17 0
-18 -3 -9 -20 11 -20 -3 -30 -15 -11 -3 6 -17 3 -33 -6 -32 -18 -82 -4 -82 23
0 13 7 15 40 9 41 -7 52 3 27 23 -11 10 -132 36 -313 69 l-52 10 -6 -66 c-23
-224 -132 -394 -341 -531 -85 -55 -292 -159 -414 -206 -42 -16 -67 -31 -57
-32 29 -6 104 16 219 65 l109 46 176 -6 c188 -6 303 -25 444 -72 77 -26 218
-91 251 -117 18 -13 16 -16 -25 -43 -23 -16 -74 -46 -112 -66 l-69 -37 -61 25
c-33 13 -117 35 -186 50 -105 21 -152 26 -290 26 -195 0 -316 -18 -470 -70
-58 -20 -113 -36 -122 -37 -23 -1 -23 0 12 -52 45 -65 20 -54 -40 18 -34 40
-78 78 -126 107 -79 48 -79 49 -24 81 12 7 11 19 -9 82 -13 40 -25 74 -27 76
-1 2 -37 -18 -79 -43 l-77 -47 -64 63 c-35 35 -64 71 -64 79 0 21 114 107 208
156 65 35 73 43 82 79 6 22 15 55 21 73 14 42 8 48 -28 29 -15 -8 -48 -23 -73
-33 -70 -29 -201 -108 -252 -153 -25 -23 -48 -41 -51 -41 -11 0 -78 113 -73
125 8 23 140 123 217 166 63 34 219 101 269 115 8 2 36 10 63 17 29 8 53 22
64 38 9 13 32 41 52 62 19 20 31 37 25 37 -5 0 -25 -20 -44 -44 -19 -24 -47
-51 -62 -60 -28 -17 -53 -22 -28 -6 20 13 -1 13 -36 0 -21 -8 -31 -7 -44 5 -9
8 -23 15 -31 14 -8 0 -6 -4 6 -9 20 -9 20 -9 0 -9 -12 -1 -26 -6 -33 -13 -8
-8 -12 -9 -12 -1 0 6 -9 9 -20 6 -11 -3 -20 -1 -20 5 0 18 20 24 36 11 8 -6
17 -9 20 -6 3 3 -3 10 -14 16 -20 11 -62 4 -62 -10 0 -5 -8 -9 -19 -9 -23 0
-112 -36 -171 -70 -25 -14 -57 -32 -72 -39 -15 -8 -36 -21 -45 -30 -10 -9 -37
-31 -60 -49 l-42 -33 -19 44 c-11 24 -25 60 -32 81 -12 36 -11 39 19 70 17 18
28 36 24 41 -5 4 -2 5 5 1 7 -4 28 4 50 21 48 37 96 68 102 66 3 -1 16 6 29
16 20 16 21 19 7 24 -10 4 -15 3 -11 -3 6 -10 -13 -14 -45 -11 -13 2 -13 1 0
-9 12 -10 11 -11 -8 -7 -12 3 -20 1 -16 -4 3 -5 -2 -9 -10 -9 -29 0 -17 21 21
38 21 10 39 23 40 29 2 7 -20 -2 -47 -19 -27 -17 -47 -35 -43 -41 3 -6 1 -7
-6 -3 -15 10 -113 -72 -104 -86 3 -6 1 -8 -5 -4 -6 3 -13 2 -17 -4 -12 -20
-22 -1 -35 69 -7 39 -17 68 -22 65 -4 -3 -8 4 -8 16 0 13 -4 19 -11 14 -8 -4
-8 -1 -1 12 10 21 6 44 -9 44 -5 0 -10 -10 -10 -22 -1 -20 -2 -20 -6 -4 -4 15
-7 16 -15 5 -7 -10 -8 2 -5 36 3 28 2 41 -2 30 -3 -11 -9 14 -12 60 -4 46 -5
23 -2 -55 12 -389 172 -747 454 -1015 201 -191 443 -319 719 -380 97 -22 408
-31 511 -16 325 50 609 192 838 422 225 224 359 487 417 814 29 167 15 455
-32 625 -97 349 -328 661 -640 862 -127 82 -396 190 -402 162 -2 -8 -13 -14
-24 -14 -15 0 -19 5 -15 19 4 15 -2 20 -30 26 -18 3 -44 3 -56 0 -15 -4 -18
-3 -9 3 15 10 -65 23 -133 21 -25 -1 -13 -5 33 -9z m176 -56 c3 -8 2 -12 -4
-9 -6 3 -10 10 -10 16 0 14 7 11 14 -7z m31 -24 c-3 -5 -12 -10 -18 -10 -7 0
-6 4 3 10 19 12 23 12 15 0z m545 -834 c152 -39 291 -86 365 -123 28 -14 60
-31 72 -37 17 -9 25 -27 35 -86 8 -41 13 -76 12 -78 -1 -2 -30 11 -63 28 -143
72 -346 135 -617 192 l-62 13 37 62 c29 50 41 62 61 63 14 0 86 -15 160 -34z
m-2091 -807 c-15 -9 -32 -2 -24 11 3 5 13 6 21 3 12 -4 13 -8 3 -14z m-34 -9
c3 -5 2 -10 -4 -10 -5 0 -13 5 -16 10 -3 6 -2 10 4 10 5 0 13 -4 16 -10z
m1855 -80 c63 -16 158 -44 210 -63 96 -35 252 -109 276 -130 7 -7 27 -23 45
-37 18 -14 42 -32 53 -42 l21 -16 -24 -44 c-40 -72 -36 -71 -106 -22 -145 102
-379 192 -605 234 -63 12 -116 23 -118 25 -2 1 3 33 9 69 l13 67 55 -7 c31 -3
108 -19 171 -34z m-1355 -10 c3 -5 -3 -10 -14 -10 -12 0 -21 5 -21 10 0 6 6
10 14 10 8 0 18 -4 21 -10z m-214 -31 c-14 -5 -28 -6 -32 -2 -4 4 6 9 24 10
30 1 31 1 8 -8z m1428 -215 c149 -33 275 -76 376 -126 93 -47 205 -124 205
-141 -1 -12 -78 -99 -111 -125 -14 -11 -27 -7 -80 22 -176 96 -426 164 -668
182 l-94 7 62 55 c33 30 77 76 97 103 43 59 49 60 213 23z"/>
<path d="M1012 3438 c-9 -9 -6 -19 14 -46 19 -25 23 -37 15 -45 -8 -8 -14 -7
-23 6 -22 28 -60 36 -90 21 -16 -8 -28 -19 -28 -24 0 -17 19 -21 40 -8 20 13
51 3 56 -18 1 -5 -30 -35 -69 -66 l-72 -56 -47 46 c-38 36 -51 43 -60 34 -9
-9 -2 -22 32 -58 71 -73 72 -73 143 -12 34 30 78 66 99 81 66 49 70 55 53 85
-29 54 -49 74 -63 60z"/>
<path d="M2865 3339 c-10 -15 1 -23 20 -15 9 3 13 10 10 16 -8 13 -22 13 -30
-1z"/>
<path d="M1085 3310 c-3 -6 1 -13 10 -16 19 -8 30 0 20 15 -8 14 -22 14 -30 1z"/>
<path d="M3197 3242 c-24 -26 -22 -31 24 -78 25 -25 38 -47 34 -54 -5 -8 -25
5 -61 41 -42 41 -57 50 -66 41 -9 -9 7 -31 73 -99 47 -49 113 -125 147 -170
34 -45 67 -85 72 -88 14 -8 142 83 135 96 -10 16 -26 10 -75 -26 -54 -40 -76
-35 -28 6 33 27 33 28 16 56 -27 45 -41 49 -77 24 -52 -37 -50 -13 2 33 76 67
58 94 -20 30 -47 -39 -63 -39 -89 1 -15 24 -15 27 0 44 23 25 21 32 -24 76
-22 21 -40 43 -40 47 0 14 37 9 50 -7 10 -12 16 -13 27 -3 13 10 12 15 -7 30
-29 23 -72 23 -93 0z m239 -283 c10 -16 -22 -43 -42 -35 -16 6 -16 8 1 26 20
23 31 25 41 9z"/>
<path d="M2306 3232 c-4 -7 -2 -12 6 -12 10 0 9 -3 -2 -9 -8 -6 -18 -7 -22 -5
-4 3 -8 -2 -8 -10 0 -21 14 -20 31 0 7 9 22 20 34 25 19 9 19 9 -2 5 -12 -2
-24 1 -26 7 -2 8 -6 7 -11 -1z"/>
<path d="M2247 3210 c-3 -12 0 -20 8 -20 7 0 15 9 18 20 3 12 0 20 -8 20 -7 0
-15 -9 -18 -20z"/>
<path d="M625 3200 c-4 -6 -3 -16 3 -22 6 -6 12 -6 17 2 4 6 3 16 -3 22 -6 6
-12 6 -17 -2z"/>
<path d="M724 3199 c-3 -6 8 -25 25 -43 l31 -32 -33 -33 c-19 -17 -40 -31 -47
-29 -24 5 -23 -30 1 -37 18 -6 30 2 66 41 23 27 43 56 43 64 0 15 -59 80 -72
80 -4 0 -10 -5 -14 -11z"/>
<path d="M666 3193 c-11 -11 -6 -23 9 -23 8 0 15 4 15 9 0 13 -16 22 -24 14z"/>
<path d="M632 3149 c2 -6 8 -10 13 -10 5 0 11 4 13 10 2 6 -4 11 -13 11 -9 0
-15 -5 -13 -11z"/>
<path d="M2290 3033 c6 -13 16 -23 23 -24 7 0 3 -4 -8 -9 -16 -7 -11 -9 20 -9
l40 -1 -29 15 c-16 9 -35 23 -43 33 -13 15 -13 15 -3 -5z"/>
<path d="M2473 3029 c-10 -10 -36 -24 -57 -32 l-39 -13 55 -2 c30 -1 75 -6 99
-11 24 -6 55 -11 68 -11 20 0 22 3 16 28 -9 37 -12 39 -72 50 -44 8 -54 6 -70
-9z"/>
<path d="M495 2989 c-4 -6 -5 -12 -4 -13 29 -23 131 -86 138 -86 29 0 5 32
-52 69 -69 45 -73 46 -82 30z"/>
<path d="M460 2937 c0 -7 25 -27 56 -46 37 -22 52 -37 46 -43 -6 -6 -17 -6
-31 2 -28 14 -35 9 -68 -48 -14 -26 -28 -49 -29 -51 -2 -2 -15 4 -28 13 -31
20 -32 20 -40 1 -4 -11 12 -24 54 -45 l60 -30 -17 -36 c-15 -30 -21 -34 -43
-28 -68 19 -96 -4 -30 -26 22 -7 40 -14 40 -15 0 -1 -7 -23 -16 -49 -15 -44
-18 -47 -43 -40 -70 19 -100 -7 -32 -27 23 -7 41 -15 41 -18 0 -3 -10 -50 -22
-104 l-23 -98 -36 6 c-44 8 -62 -10 -57 -57 3 -30 7 -34 46 -42 56 -12 65 -1
81 89 27 160 99 360 182 507 27 48 49 96 49 107 0 13 -20 32 -57 55 -60 38
-83 44 -83 23z m75 -127 c7 -11 -32 -90 -45 -90 -20 0 -20 21 0 60 20 40 33
49 45 30z m-207 -609 c-2 -11 -12 -15 -28 -13 -31 5 -34 8 -27 25 8 21 59 10
55 -12z"/>
<path d="M3502 2855 c-60 -44 -69 -55 -56 -68 9 -9 145 86 141 97 -7 21 -25
14 -85 -29z"/>
<path d="M2057 2872 c-28 -31 -57 -108 -63 -169 -10 -89 22 -202 89 -316 56
-96 71 -127 69 -139 -1 -5 5 -8 13 -8 8 0 15 5 15 10 0 6 -29 66 -64 134 -103
201 -122 336 -62 454 28 55 29 63 3 34z"/>
<path d="M2248 2863 c6 -2 18 -2 25 0 6 3 1 5 -13 5 -14 0 -19 -2 -12 -5z"/>
<path d="M2380 2846 l65 -11 -45 -4 c-37 -3 -24 -7 76 -21 66 -10 129 -20 140
-22 14 -2 20 4 22 23 l3 25 -128 12 c-160 15 -226 14 -133 -2z"/>
<path d="M3690 2685 c0 -8 7 -15 15 -15 8 0 15 7 15 15 0 8 -7 15 -15 15 -8 0
-15 -7 -15 -15z"/>
<path d="M3603 2662 c-61 -24 -64 -25 -83 -7 -15 13 -24 15 -31 8 -16 -16 25
-53 60 -53 26 0 29 -4 49 -72 12 -40 29 -103 38 -140 18 -73 25 -78 80 -58 25
10 26 14 20 53 -3 23 -9 52 -12 65 -5 16 -2 22 10 22 8 0 18 -11 22 -25 4 -16
13 -25 26 -25 15 0 18 4 12 23 -11 37 -35 57 -70 57 -18 0 -35 -4 -38 -8 -3
-5 1 -33 9 -63 19 -69 19 -69 -4 -69 -15 0 -21 12 -30 60 -7 33 -21 85 -31
116 -26 76 -26 81 15 95 22 8 35 20 35 31 0 22 0 22 -77 -10z"/>
<path d="M2278 2673 c7 -3 16 -2 19 1 4 3 -2 6 -13 5 -11 0 -14 -3 -6 -6z"/>
<path d="M2360 2661 c-24 -9 -24 -9 7 -10 17 -1 33 -5 35 -10 5 -14 166 -29
178 -17 25 25 10 36 -49 36 -32 0 -78 2 -102 5 -24 2 -55 0 -69 -4z"/>
<path d="M496 2583 c-11 -11 -6 -23 9 -23 8 0 15 4 15 9 0 13 -16 22 -24 14z"/>
<path d="M455 2480 c-7 -12 2 -30 16 -30 12 0 12 27 0 35 -5 3 -12 1 -16 -5z"/>
<path d="M2223 2465 c7 -14 15 -25 19 -25 4 0 2 11 -4 25 -6 14 -15 25 -19 25
-4 0 -2 -11 4 -25z"/>
<path d="M2248 2483 c6 -2 18 -2 25 0 6 3 1 5 -13 5 -14 0 -19 -2 -12 -5z"/>
<path d="M2325 2470 c-3 -6 4 -10 16 -10 22 0 22 0 3 -15 -18 -13 -16 -14 27
-15 35 0 51 5 67 23 l22 23 -65 2 c-35 1 -67 -3 -70 -8z m95 -15 c-7 -8 -17
-15 -22 -15 -11 0 14 29 26 30 5 0 3 -7 -4 -15z"/>
<path d="M445 2440 c-4 -6 -3 -16 3 -22 6 -6 12 -6 17 2 4 6 3 16 -3 22 -6 6
-12 6 -17 -2z"/>
<path d="M2283 2443 c9 -2 23 -2 30 0 6 3 -1 5 -18 5 -16 0 -22 -2 -12 -5z"/>
<path d="M3593 2293 c-7 -19 29 -53 57 -53 13 0 19 -11 23 -52 8 -67 16 -74
74 -62 53 10 63 27 43 78 -9 26 -13 27 -51 21 -33 -6 -40 -4 -37 6 3 8 22 16
44 19 26 3 39 10 39 20 0 16 -10 17 -97 5 -52 -6 -57 -5 -63 14 -8 25 -23 27
-32 4z m175 -128 c-1 -2 -14 -5 -28 -7 -17 -2 -26 2 -28 14 -4 21 39 29 51 10
5 -7 7 -15 5 -17z"/>
<path d="M2115 2280 c3 -5 8 -10 11 -10 2 0 4 5 4 10 0 6 -5 10 -11 10 -5 0
-7 -4 -4 -10z"/>
<path d="M190 2246 c0 -9 7 -16 16 -16 17 0 14 22 -4 28 -7 2 -12 -3 -12 -12z"/>
<path d="M186 2213 c-11 -11 -6 -23 9 -23 8 0 15 4 15 9 0 13 -16 22 -24 14z"/>
<path d="M2766 2171 c-15 -6 -16 -10 -7 -15 8 -5 20 -2 29 8 17 17 9 19 -22 7z"/>
<path d="M2078 2071 c-73 -49 -180 -127 -238 -174 -127 -103 -322 -300 -376
-382 -80 -120 -125 -258 -122 -375 1 -50 2 -55 5 -21 3 24 13 52 24 64 10 11
19 27 19 34 0 7 6 13 14 13 8 0 21 9 28 19 12 16 20 18 56 11 l43 -8 -22 24
-22 24 69 1 69 2 -74 9 c-111 14 -125 30 -21 24 47 -4 101 -2 120 4 30 8 26 8
-25 5 -46 -3 -52 -2 -28 4 18 5 40 14 49 22 9 7 32 12 52 11 63 -5 30 6 -56
18 -93 12 -160 34 -82 26 108 -12 204 -16 186 -8 -15 7 -16 11 -7 17 11 6 11
9 0 16 -10 6 -5 9 16 9 29 0 64 15 55 23 -3 2 -48 11 -100 20 l-95 16 95 -5
c52 -3 115 -7 140 -9 36 -3 39 -3 15 4 -28 7 -27 8 28 20 64 14 77 25 20 17
-28 -4 -25 -2 12 8 l50 12 -135 18 c-74 10 -144 22 -155 26 -21 9 31 5 206
-14 90 -10 108 -9 120 3 11 13 11 14 -4 8 -11 -4 -16 -3 -12 3 3 6 23 10 43
10 20 0 45 7 55 14 17 13 16 14 -10 20 -15 3 -89 13 -163 23 -177 23 -129 30
62 8 135 -15 149 -15 164 -1 8 9 24 16 35 16 11 0 17 4 14 10 -3 5 6 15 20 22
15 7 24 17 21 25 -4 9 -1 11 5 7 7 -4 9 -21 6 -43 -5 -29 -4 -33 5 -17 19 34
16 290 -6 374 -10 40 -22 74 -26 77 -5 3 -69 -35 -142 -84z m87 -120 l40 -9
-50 0 c-27 -1 -68 3 -90 7 l-40 9 50 0 c28 1 68 -3 90 -7z m0 -91 l40 -8 -50
0 c-27 0 -86 6 -130 13 l-80 14 90 -5 c50 -3 108 -9 130 -14z m-105 -85 c58
-8 109 -15 113 -15 5 0 6 -4 3 -8 -4 -7 -251 19 -296 32 -38 10 86 4 180 -9z
m13 -142 c-7 -2 -19 -2 -25 0 -7 3 -2 5 12 5 14 0 19 -2 13 -5z m-206 -69 c-3
-3 -12 -4 -19 -1 -8 3 -5 6 6 6 11 1 17 -2 13 -5z m-90 -90 c-3 -3 -12 -4 -19
-1 -8 3 -5 6 6 6 11 1 17 -2 13 -5z"/>
<path d="M2966 2115 c4 -9 16 -21 28 -27 19 -10 19 -9 -3 16 -28 30 -33 32
-25 11z"/>
<path d="M1840 2050 c-9 -6 -10 -10 -3 -10 6 0 15 5 18 10 8 12 4 12 -15 0z"/>
<path d="M2380 2025 c5 -20 10 -38 12 -39 1 -2 50 -10 108 -19 92 -15 273 -54
338 -73 20 -6 22 -3 22 34 0 23 -4 44 -10 47 -5 3 -10 1 -10 -4 0 -6 -4 -11
-10 -11 -5 0 -10 7 -10 15 0 18 -40 20 -40 3 0 -8 -5 -6 -10 3 -13 22 -143 50
-347 74 l-51 7 8 -37z"/>
<path d="M591 2024 c0 -11 3 -14 6 -6 3 7 2 16 -1 19 -3 4 -6 -2 -5 -13z"/>
<path d="M570 1996 c0 -2 7 -9 15 -16 9 -7 15 -8 15 -2 0 5 -7 12 -15 16 -8 3
-15 4 -15 2z"/>
<path d="M685 1974 l-30 -26 33 22 c17 12 32 23 32 26 0 7 -4 5 -35 -22z"/>
<path d="M590 1940 c0 -11 4 -20 9 -20 5 0 7 9 4 20 -3 11 -7 20 -9 20 -2 0
-4 -9 -4 -20z"/>
<path d="M2900 1920 c0 -33 4 -42 24 -51 18 -9 31 -7 64 10 23 12 49 21 59 22
16 0 -64 35 -124 53 -21 7 -23 4 -23 -34z"/>
<path d="M629 1933 c-12 -16 -12 -17 2 -6 9 7 20 9 24 5 5 -4 5 -1 1 6 -9 16
-11 15 -27 -5z"/>
<path d="M694 1936 c24 -19 32 -20 42 -4 4 7 3 8 -4 4 -6 -4 -22 -2 -34 4 -22
11 -22 10 -4 -4z"/>
<path d="M680 1910 c0 -5 5 -10 10 -10 6 0 10 5 10 10 0 6 -4 10 -10 10 -5 0
-10 -4 -10 -10z"/>
<path d="M608 1893 c7 -3 16 -2 19 1 4 3 -2 6 -13 5 -11 0 -14 -3 -6 -6z"/>
<path d="M634 1880 c-30 -12 -37 -26 -25 -47 9 -16 10 -16 11 5 0 12 6 22 14
22 7 0 19 7 26 15 14 17 6 18 -26 5z"/>
<path d="M305 1851 c-50 -12 -71 -21 -73 -34 -3 -14 2 -16 30 -11 l33 6 -27
-26 c-17 -15 -26 -31 -22 -40 5 -13 13 -10 46 15 37 30 42 31 76 21 20 -6 37
-10 39 -8 9 9 -12 36 -27 36 -27 0 -34 17 -10 23 18 5 30 38 13 36 -5 -1 -39
-9 -78 -18z"/>
<path d="M930 1855 c-14 -8 -20 -14 -15 -14 6 0 21 6 35 14 14 8 21 14 15 14
-5 0 -21 -6 -35 -14z"/>
<path d="M3632 1830 c-1 -29 1 -30 43 -30 24 0 50 -3 59 -6 11 -4 16 -1 16 10
0 11 -13 18 -40 22 -24 4 -40 12 -40 20 0 8 -8 14 -18 14 -14 0 -19 -8 -20
-30z"/>
<path d="M3632 1758 c-16 -16 -15 -53 2 -67 8 -7 34 -11 57 -9 36 3 44 7 50
28 3 14 1 31 -4 38 -13 17 -37 15 -37 -3 0 -8 5 -15 10 -15 6 0 10 -4 10 -10
0 -24 -29 -8 -32 18 -3 30 -34 42 -56 20z m28 -34 c0 -8 -4 -12 -10 -9 -5 3
-10 10 -10 16 0 5 5 9 10 9 6 0 10 -7 10 -16z"/>
<path d="M1425 1750 c-3 -5 -2 -10 4 -10 5 0 13 5 16 10 3 6 2 10 -4 10 -5 0
-13 -4 -16 -10z"/>
<path d="M395 1740 c-8 -13 4 -32 16 -25 12 8 12 35 0 35 -6 0 -13 -4 -16 -10z"/>
<path d="M298 1717 c-21 -6 -38 -16 -38 -24 0 -16 5 -16 69 -1 30 7 51 17 51
25 0 15 -28 15 -82 0z"/>
<path d="M1323 1723 c9 -2 23 -2 30 0 6 3 -1 5 -18 5 -16 0 -22 -2 -12 -5z"/>
<path d="M1235 1705 c-38 -14 -25 -14 43 1 21 4 24 3 12 -5 -13 -10 -13 -11 0
-11 13 0 13 -2 0 -11 -12 -9 -11 -9 5 -4 45 16 56 17 72 4 13 -11 15 -11 9 -1
-8 14 -40 28 -79 36 -12 3 -40 -2 -62 -9z"/>
<path d="M1376 1706 c3 -9 11 -16 16 -16 13 0 5 23 -10 28 -7 2 -10 -2 -6 -12z"/>
<path d="M323 1653 c-24 -8 -43 -19 -43 -23 0 -18 19 -19 59 -5 56 19 61 2 6
-20 -25 -9 -45 -23 -45 -31 0 -17 -4 -17 56 3 59 20 65 27 51 64 -13 32 -23
34 -84 12z"/>
<path d="M3593 1662 c-25 -4 -32 -32 -8 -32 8 0 15 -5 15 -11 0 -6 8 -8 18 -5
9 3 34 2 54 -3 28 -7 40 -5 49 5 16 19 4 32 -25 27 -14 -3 -37 1 -53 9 -15 7
-38 12 -50 10z"/>
<path d="M2180 1656 c0 -2 7 -6 15 -10 8 -3 15 -1 15 4 0 6 -7 10 -15 10 -8 0
-15 -2 -15 -4z"/>
<path d="M3592 1578 c-7 -7 -12 -24 -12 -40 0 -23 6 -29 38 -37 61 -16 75 -17
79 -4 3 8 -13 17 -41 25 -62 16 -58 32 5 23 40 -6 50 -4 47 6 -2 7 -15 16 -29
19 -66 18 -76 19 -87 8z"/>
<path d="M2115 1560 c3 -5 10 -10 16 -10 5 0 9 5 9 10 0 6 -7 10 -16 10 -8 0
-12 -4 -9 -10z"/>
<path d="M2206 1555 c-9 -26 -7 -32 5 -12 6 10 9 21 6 23 -2 3 -7 -2 -11 -11z"/>
<path d="M360 1542 c-30 -15 -35 -21 -32 -47 2 -16 0 -26 -5 -22 -8 8 -9 13
-12 39 -1 9 -4 9 -12 1 -15 -15 -4 -59 16 -67 13 -4 145 40 145 49 0 1 -5 16
-11 34 -13 36 -36 40 -89 13z m64 -21 c6 -9 -36 -31 -59 -31 -25 0 -17 18 13
28 35 13 40 14 46 3z"/>
<path d="M1928 1493 c7 -3 16 -2 19 1 4 3 -2 6 -13 5 -11 0 -14 -3 -6 -6z"/>
<path d="M1848 1473 c7 -3 16 -2 19 1 4 3 -2 6 -13 5 -11 0 -14 -3 -6 -6z"/>
<path d="M3556 1454 c-14 -36 -6 -55 29 -70 51 -21 74 -18 87 12 13 27 3 54
-22 62 -10 4 -11 -3 -7 -27 5 -24 3 -31 -10 -31 -12 0 -14 7 -10 35 6 34 5 35
-28 35 -21 0 -35 -6 -39 -16z m44 -24 c0 -5 -4 -10 -10 -10 -5 0 -10 5 -10 10
0 6 5 10 10 10 6 0 10 -4 10 -10z"/>
<path d="M1785 1440 c3 -5 8 -10 11 -10 2 0 4 5 4 10 0 6 -5 10 -11 10 -5 0
-7 -4 -4 -10z"/>
<path d="M403 1393 c-48 -10 -73 -20 -73 -29 0 -8 10 -14 24 -14 32 0 44 -19
22 -35 -9 -7 -14 -19 -10 -29 5 -13 12 -11 48 14 87 64 89 66 81 88 -3 12 -9
21 -13 21 -4 -1 -40 -8 -79 -16z m37 -33 c-20 -13 -33 -13 -25 0 3 6 14 10 23
10 15 0 15 -2 2 -10z"/>
<path d="M1768 1373 c6 -2 18 -2 25 0 6 3 1 5 -13 5 -14 0 -19 -2 -12 -5z"/>
<path d="M3478 1344 c-9 -18 -9 -30 -1 -42 14 -23 101 -55 129 -48 39 10 44
76 7 90 -24 9 -36 -16 -16 -32 28 -20 3 -34 -38 -21 -57 20 -81 49 -39 49 11
0 20 7 20 15 0 27 -49 18 -62 -11z"/>
<path d="M1658 1323 c7 -3 16 -2 19 1 4 3 -2 6 -13 5 -11 0 -14 -3 -6 -6z"/>
<path d="M458 1282 c-57 -30 -67 -40 -62 -57 16 -52 53 -56 108 -12 24 19 27
27 18 42 -8 15 -6 22 6 31 12 9 14 16 7 23 -7 7 -32 -2 -77 -27z m35 -29 c7
-6 -40 -43 -55 -43 -17 0 -6 28 15 38 27 13 32 14 40 5z"/>
<path d="M1738 1313 c7 -3 16 -2 19 1 4 3 -2 6 -13 5 -11 0 -14 -3 -6 -6z"/>
<path d="M3453 1200 c-4 -16 -8 -18 -20 -9 -10 9 -17 9 -25 1 -14 -14 -16 -13
60 -56 58 -33 82 -38 82 -17 0 4 -18 17 -40 30 -22 12 -38 27 -34 32 3 5 22 0
45 -13 27 -15 42 -19 50 -11 7 7 -3 18 -35 37 -54 31 -76 33 -83 6z"/>
<path d="M494 1171 c-50 -30 -51 -37 -15 -90 7 -11 21 -6 72 24 35 21 66 40
68 41 2 2 1 11 -3 20 -5 14 -9 14 -22 3 -13 -11 -17 -10 -25 4 -13 22 -37 21
-75 -2z m56 -20 c0 -10 -45 -41 -60 -41 -18 0 -10 15 18 32 31 20 42 22 42 9z"/>
<path d="M1385 1170 c-8 -13 9 -20 24 -11 10 6 9 10 -3 14 -8 3 -18 2 -21 -3z"/>
<path d="M3402 1108 c-23 -23 -14 -55 23 -78 39 -24 63 -23 79 3 12 19 0 47
-24 55 -9 3 -11 -2 -6 -22 8 -33 -5 -33 -41 -1 -28 24 -28 24 -5 25 14 0 22 5
20 13 -6 17 -31 20 -46 5z"/>
<path d="M558 1069 c-43 -35 -45 -44 -19 -78 l18 -24 47 32 c25 18 46 36 46
41 0 20 -19 18 -53 -5 -39 -27 -47 -30 -47 -16 0 4 18 21 40 36 22 15 37 31
34 36 -9 16 -28 9 -66 -22z"/>
<path d="M3342 1019 c-15 -24 -14 -25 43 -62 52 -35 75 -18 27 19 -18 14 -31
33 -30 42 4 25 -25 25 -40 1z"/>
<path d="M641 986 c-51 -42 -64 -62 -37 -60 20 2 116 77 116 91 0 23 -24 13
-79 -31z"/>
<path d="M678 931 c-43 -37 -54 -52 -45 -59 9 -8 27 2 67 35 55 45 73 73 48
73 -7 -1 -39 -23 -70 -49z"/>
<path d="M3278 936 c-12 -27 -4 -61 12 -51 5 3 10 15 10 26 0 10 5 19 11 19 7
0 8 -11 4 -30 -8 -35 8 -60 37 -60 10 0 22 8 25 18 4 9 13 22 21 27 10 9 4 17
-31 43 -54 38 -74 40 -89 8z m86 -57 c-10 -16 -24 -9 -24 12 0 18 2 19 15 9 8
-7 12 -16 9 -21z"/>
<path d="M735 889 c-4 -6 2 -13 14 -16 23 -6 29 -23 9 -23 -7 0 -20 4 -27 9
-17 11 -46 -1 -54 -23 -3 -8 5 -26 19 -41 l24 -26 40 33 c22 18 40 41 40 50 0
34 -50 63 -65 37z m5 -58 c0 -12 -20 -25 -27 -18 -7 7 6 27 18 27 5 0 9 -4 9
-9z"/>
<path d="M3212 858 c-21 -21 -13 -55 19 -82 35 -30 51 -32 73 -10 18 17 20 32
7 53 -12 19 -33 3 -26 -20 4 -10 2 -19 -4 -19 -20 0 -23 22 -5 41 17 18 17 20
-2 34 -23 18 -46 19 -62 3z m38 -28 c0 -5 -4 -10 -10 -10 -5 0 -10 5 -10 10 0
6 5 10 10 10 6 0 10 -4 10 -10z"/>
<path d="M800 795 c-44 -44 -52 -57 -41 -67 10 -11 18 -7 42 20 27 30 49 41
49 25 0 -4 -14 -21 -31 -39 -47 -49 -26 -65 22 -18 39 38 49 67 29 79 -8 5 -7
11 0 20 11 14 6 35 -8 35 -4 0 -32 -25 -62 -55z"/>
<path d="M3122 788 c-15 -15 -15 -45 0 -54 7 -4 27 -7 45 -6 18 2 33 -2 33 -8
0 -6 -7 -10 -16 -8 -23 4 -30 -20 -9 -28 10 -4 25 1 38 15 30 30 13 56 -37 55
-39 -1 -49 10 -15 19 12 3 18 10 14 16 -8 15 -38 14 -53 -1z"/>
<path d="M921 681 c-45 -61 -50 -73 -33 -79 14 -4 105 116 97 128 -11 18 -21
11 -64 -49z"/>
<path d="M3047 712 c-24 -27 -21 -44 14 -80 37 -37 40 -38 69 -14 17 13 21 24
16 40 -12 37 -32 25 -27 -15 2 -16 -15 -17 -24 -2 -4 5 1 19 11 31 18 19 18
20 -5 39 -29 24 -34 24 -54 1z m33 -27 c0 -8 -4 -15 -10 -15 -5 0 -10 7 -10
15 0 8 5 15 10 15 6 0 10 -7 10 -15z"/>
<path d="M2919 652 l-30 -27 49 -61 c35 -44 53 -59 63 -53 11 6 9 14 -9 39
-20 26 -21 31 -7 36 10 4 26 -3 41 -17 19 -17 27 -20 36 -11 9 9 3 20 -25 46
-20 18 -37 39 -37 44 0 10 -31 32 -44 32 -3 0 -20 -12 -37 -28z m54 -19 c4 -3
2 -12 -4 -20 -9 -10 -15 -10 -25 -2 -8 6 -11 15 -8 20 6 11 28 12 37 2z"/>
<path d="M963 622 c-37 -53 -39 -62 -18 -62 8 0 25 16 37 35 22 33 38 45 38
26 0 -4 -11 -24 -25 -44 -14 -22 -20 -39 -14 -43 14 -8 31 8 57 55 l22 39 -29
21 c-16 12 -31 21 -33 21 -1 0 -18 -21 -35 -48z"/>
<path d="M1092 615 c-7 -8 -13 -18 -13 -22 0 -5 -10 -25 -21 -45 -21 -37 -18
-73 5 -65 6 2 11 10 9 17 -1 7 10 28 25 48 30 40 41 82 21 82 -7 -1 -19 -7
-26 -15z"/>
<path d="M2797 574 c-10 -10 64 -144 79 -144 19 0 19 1 -21 80 -34 67 -44 78
-58 64z"/>
<path d="M1144 552 c-13 -8 -44 -66 -44 -81 0 -17 46 -42 64 -35 9 3 16 13 16
21 0 11 -7 13 -25 9 -26 -7 -31 0 -17 21 5 8 13 9 22 3 25 -16 39 -11 46 15
10 41 -28 70 -62 47z m36 -32 c0 -5 -4 -10 -10 -10 -5 0 -10 5 -10 10 0 6 5
10 10 10 6 0 10 -4 10 -10z"/>
<path d="M1224 463 c-10 -26 -20 -51 -22 -55 -2 -5 4 -8 12 -8 9 0 24 16 33
35 9 20 22 34 29 31 7 -3 15 2 18 11 8 19 7 20 -25 28 -23 6 -27 2 -45 -42z"/>
<path d="M2728 493 c-18 -21 -13 -44 8 -36 7 3 11 9 8 14 -3 5 2 9 11 9 15 0
15 -2 1 -22 -20 -28 -21 -67 -1 -74 14 -6 75 16 75 26 -1 3 -11 25 -23 50 -24
50 -53 62 -79 33z m62 -68 c0 -8 -4 -15 -10 -15 -5 0 -10 7 -10 15 0 8 5 15
10 15 6 0 10 -7 10 -15z"/>
<path d="M1302 427 c-26 -61 -26 -67 -9 -67 8 0 22 18 32 40 10 22 22 40 27
40 12 0 9 -22 -7 -50 -18 -32 -19 -50 -1 -50 13 0 46 72 46 102 0 12 -44 38
-65 38 -1 0 -11 -24 -23 -53z"/>
<path d="M2540 455 c0 -9 5 -15 11 -13 6 2 11 8 11 13 0 5 -5 11 -11 13 -6 2
-11 -4 -11 -13z"/>
<path d="M2641 459 c-21 -8 -23 -14 -18 -51 7 -52 27 -73 61 -64 19 5 26 13
26 31 0 16 -6 25 -16 25 -10 0 -14 -6 -11 -15 4 -8 2 -17 -4 -20 -9 -6 -33 46
-28 62 1 4 10 7 21 5 21 -4 24 11 6 26 -8 6 -22 6 -37 1z"/>
<path d="M2480 430 c0 -10 -9 -24 -21 -31 -18 -9 -20 -16 -14 -47 13 -70 28
-82 78 -63 l25 10 -22 75 c-12 43 -26 76 -33 76 -7 0 -13 -9 -13 -20z m23 -84
c10 -29 3 -46 -12 -30 -5 5 -13 22 -17 38 -9 38 16 31 29 -8z"/>
<path d="M1545 417 c-8 -23 -8 -25 -20 -94 -7 -38 -5 -43 12 -43 15 0 19 7 20
36 1 20 6 41 12 47 16 16 14 64 -3 70 -8 3 -17 -3 -21 -16z"/>
<path d="M1426 414 c-5 -13 -1 -15 19 -12 16 4 24 1 22 -6 -2 -6 -12 -13 -23
-15 -27 -5 -44 -21 -44 -42 0 -21 5 -24 46 -33 29 -6 31 -5 42 32 16 53 15 79
-4 86 -28 11 -52 6 -58 -10z m32 -66 c-2 -6 -10 -14 -16 -16 -7 -2 -10 2 -6
12 7 18 28 22 22 4z"/>
<path d="M1620 416 c0 -9 7 -16 16 -16 9 0 14 5 12 12 -6 18 -28 21 -28 4z"/>
<path d="M2550 423 c0 -18 35 -113 41 -113 17 0 17 18 3 68 -9 31 -21 52 -30
52 -8 0 -14 -3 -14 -7z"/>
<path d="M2247 393 c-4 -3 -7 -24 -7 -45 0 -44 -15 -43 -25 2 -8 35 -17 43
-40 33 -15 -5 -17 -15 -11 -69 8 -76 14 -94 32 -94 13 0 13 15 -1 84 -6 31 12
4 25 -37 16 -52 34 -42 40 24 l5 54 9 -52 c5 -37 12 -53 23 -53 15 0 15 21 -4
128 -5 30 -28 43 -46 25z"/>
<path d="M1600 334 c-8 -40 -9 -59 -1 -67 12 -12 16 -5 30 62 5 25 8 49 5 53
-12 20 -23 4 -34 -48z"/>
<path d="M2017 373 c-4 -3 -7 -39 -7 -80 0 -58 3 -73 15 -73 12 0 15 16 15 80
0 73 -6 91 -23 73z"/>
<path d="M2340 365 c-14 -17 -7 -72 14 -100 9 -13 20 -16 38 -12 29 8 44 35
29 50 -7 7 -12 5 -17 -6 -8 -21 -34 -22 -34 -2 0 8 11 17 25 21 27 7 30 15 15
45 -13 23 -52 25 -70 4z m41 -28 c-13 -13 -26 -3 -16 12 3 6 11 8 17 5 6 -4 6
-10 -1 -17z"/>
<path d="M1670 351 c-5 -11 -10 -36 -10 -56 0 -28 5 -38 25 -47 18 -8 28 -8
39 1 20 17 31 88 16 106 -18 21 -57 18 -70 -4z m50 -18 c0 -29 -12 -63 -21
-63 -10 0 -12 41 -3 64 8 21 24 20 24 -1z"/>
<path d="M1786 352 c-10 -17 -10 -115 0 -119 13 -4 24 28 24 70 0 15 5 27 10
27 6 0 10 -22 10 -50 0 -49 12 -66 24 -34 9 22 7 104 -1 105 -5 0 -20 2 -35 4
-15 2 -30 1 -32 -3z"/>
<path d="M1913 343 c-7 -2 -13 -12 -13 -20 0 -11 7 -14 27 -8 23 5 25 4 14 -9
-8 -9 -20 -16 -27 -16 -15 0 -29 -43 -19 -59 3 -6 24 -11 46 -11 l39 0 0 53
c0 68 -21 89 -67 70z m37 -77 c0 -17 -14 -29 -23 -20 -8 8 3 34 14 34 5 0 9
-6 9 -14z"/>
</g>
</svg>
