<?xml version="1.0" standalone="no"?>
<!DOCTYPE svg PUBLIC "-//W3C//DTD SVG 20010904//EN"
 "http://www.w3.org/TR/2001/REC-SVG-20010904/DTD/svg10.dtd">
<svg version="1.0" xmlns="http://www.w3.org/2000/svg"
 width="920.000000pt" height="500.000000pt" viewBox="0 0 920.000000 500.000000"
 preserveAspectRatio="xMidYMid meet">

<g transform="translate(0.000000,500.000000) scale(0.100000,-0.100000)"
fill="#000000" stroke="none">
<path d="M2290 2184 c-108 -22 -163 -39 -167 -51 -6 -17 99 -89 203 -139 50
-24 135 -56 190 -71 87 -24 118 -27 259 -27 136 -1 172 3 244 22 46 13 95 29
109 36 l25 13 -64 46 c-123 87 -281 151 -442 177 -86 14 -279 11 -357 -6z"/>
<path d="M2036 2106 l-28 -11 22 -28 c43 -54 203 -168 314 -223 167 -82 271
-106 471 -106 139 0 172 3 255 25 52 13 116 35 142 47 l48 22 -20 27 c-11 14
-27 36 -37 48 l-18 22 -68 -24 c-193 -71 -475 -73 -672 -5 -93 32 -212 95
-301 159 -75 53 -84 57 -108 47z"/>
<path d="M1932 2056 c-23 -12 -22 -14 67 -103 161 -160 364 -284 554 -338 228
-64 512 -49 711 39 31 14 56 30 56 35 0 13 -31 91 -36 91 -2 0 -37 -13 -78
-30 -133 -52 -260 -73 -426 -67 -153 4 -242 22 -369 71 -137 54 -282 148 -391
252 -60 58 -67 61 -88 50z"/>
<path d="M1840 2002 c0 -27 85 -127 191 -226 163 -151 373 -271 566 -323 90
-25 114 -27 293 -27 208 -1 238 3 398 60 l72 26 -6 37 c-12 73 -10 71 -52 51
-65 -32 -158 -59 -254 -76 -136 -24 -361 -15 -483 19 -234 66 -407 169 -602
360 -94 92 -123 115 -123 99z"/>
<path d="M1765 1933 c22 -47 153 -200 238 -278 166 -155 378 -284 555 -339
232 -73 517 -74 732 -3 l65 22 3 48 3 48 -38 -16 c-142 -60 -414 -90 -596 -66
-192 26 -416 117 -591 242 -90 65 -239 204 -334 314 -41 46 -49 53 -37 28z"/>
<path d="M1732 1808 c57 -82 172 -210 259 -291 378 -353 837 -489 1274 -378
69 17 70 18 76 54 3 20 5 37 5 37 -1 0 -44 -11 -96 -24 -344 -87 -688 -32
-1015 162 -156 93 -341 253 -459 400 -60 75 -85 96 -44 40z"/>
<path d="M1557 1778 c-53 -57 -125 -175 -148 -246 -16 -48 -23 -90 -22 -147 1
-271 219 -526 606 -710 520 -246 940 -219 1168 75 53 68 124 204 135 256 l6
30 -104 -18 c-383 -65 -773 36 -1115 290 -114 85 -320 292 -408 410 -37 50
-73 92 -78 92 -5 0 -23 -15 -40 -32z"/>
</g>
</svg>
