<?xml version="1.0" standalone="no"?>
<!DOCTYPE svg PUBLIC "-//W3C//DTD SVG 20010904//EN"
 "http://www.w3.org/TR/2001/REC-SVG-20010904/DTD/svg10.dtd">
<svg version="1.0" xmlns="http://www.w3.org/2000/svg"
 width="1200.000000pt" height="461.000000pt" viewBox="0 0 1200.000000 461.000000"
 preserveAspectRatio="xMidYMid meet">

<g transform="translate(0.000000,461.000000) scale(0.100000,-0.100000)"
fill="#000000" stroke="none">
<path d="M0 2305 l0 -2305 5133 0 c3515 0 5168 3 5247 11 435 39 798 207 1101
509 299 297 468 664 509 1105 6 68 10 654 10 1548 l0 1437 -6000 0 -6000 0 0
-2305z m10332 1866 c247 -115 664 -263 936 -332 l132 -34 0 -1070 c0 -1216 2
-1186 -83 -1400 -150 -381 -482 -648 -892 -719 -211 -37 -455 -4 -655 87 -286
130 -517 381 -618 672 -59 169 -56 90 -59 1311 l-4 1120 53 13 c331 82 746
226 1008 350 47 22 88 40 92 40 3 1 44 -16 90 -38z m-8442 -176 c54 -28 54
-90 0 -118 -42 -23 -79 -13 -106 29 -16 24 -16 29 -3 53 13 23 52 50 72 51 4
0 21 -7 37 -15z m210 0 c52 -27 52 -93 -1 -121 -51 -26 -118 9 -119 62 0 28
47 70 83 73 4 1 21 -6 37 -14z m4098 -77 c9 -9 12 -95 12 -325 l0 -313 1035 0
1035 0 -5 23 c-3 12 -14 63 -24 114 -23 106 -39 141 -80 176 -79 66 -213 75
-344 22 -91 -36 -111 -32 -115 22 -3 37 0 44 25 57 74 38 272 56 375 35 69
-15 100 -31 155 -82 70 -64 89 -112 140 -344 4 -17 13 -23 42 -25 35 -3 36 -4
39 -50 l3 -48 -1220 0 -1221 0 -2 333 -3 332 -27 3 c-25 3 -28 7 -28 43 l0 39
98 0 c63 0 102 -4 110 -12z m-556 -197 c99 -42 157 -125 166 -237 9 -111 -36
-216 -112 -263 -113 -70 -310 -67 -424 7 -20 13 -24 13 -40 -1 -9 -8 -39 -22
-67 -31 -44 -15 -124 -16 -720 -14 -624 3 -672 4 -703 21 -32 18 -35 18 -93
-2 -58 -20 -78 -21 -819 -21 l-760 0 0 30 0 31 -42 -25 c-115 -66 -277 -51
-356 32 -43 47 -62 106 -62 196 0 106 21 167 75 221 50 50 116 75 200 75 65 0
146 -22 165 -46 10 -11 17 -9 41 17 24 26 34 30 71 27 l43 -3 3 -227 2 -228
670 0 c369 0 670 2 670 4 0 2 -49 46 -110 96 -84 71 -110 99 -110 117 0 83
127 184 270 214 76 16 212 6 281 -20 104 -40 185 -115 195 -183 5 -32 2 -36
-111 -128 l-116 -95 618 -3 c402 -2 630 1 654 7 67 20 99 79 99 186 0 68 18
130 50 176 25 35 99 80 149 90 56 12 173 2 223 -20z m2528 -641 c24 -24 26
-72 4 -94 -48 -49 -134 -20 -134 45 0 40 32 69 75 69 22 0 43 -8 55 -20z
m-2340 -324 l0 -34 -56 -4 c-64 -5 -74 -15 -74 -75 l0 -42 68 -3 67 -3 3 -32
3 -33 -155 0 -156 0 0 35 c0 34 1 35 39 35 l38 0 5 48 c10 101 56 142 161 142
l57 0 0 -34z m360 -261 c6 -312 10 -332 71 -354 18 -6 85 -11 150 -11 94 0
121 3 133 16 14 14 16 50 14 282 l-3 267 -32 3 c-31 3 -33 5 -33 43 l0 40 108
-3 107 -3 5 -282 c5 -266 6 -283 26 -310 31 -41 61 -53 139 -53 88 0 138 14
176 48 24 22 32 39 39 92 5 36 10 83 10 106 0 57 44 140 93 175 50 36 104 51
183 51 208 1 339 -150 305 -352 -16 -98 18 -120 189 -120 l110 0 0 279 c0 300
2 291 -51 291 -16 0 -19 7 -19 40 l0 41 108 -3 107 -3 3 -373 2 -373 -189 3
c-211 3 -221 6 -269 79 l-23 35 -44 -43 c-95 -91 -278 -107 -422 -37 l-53 25
-55 -26 c-41 -21 -75 -28 -140 -32 -109 -7 -164 11 -202 68 l-26 39 -16 -32
c-31 -63 -66 -73 -246 -73 -152 0 -162 1 -193 23 -18 13 -39 37 -48 54 l-15
30 -18 -34 c-10 -18 -34 -42 -52 -53 -32 -19 -52 -20 -414 -20 -424 0 -451 4
-512 68 -52 54 -67 94 -67 177 -1 60 4 85 24 125 24 49 26 50 70 50 39 0 45
-3 48 -23 2 -14 -7 -35 -26 -56 -65 -74 -44 -173 44 -217 48 -24 54 -24 385
-27 302 -3 338 -1 353 13 14 15 16 47 14 283 l-3 267 -30 5 c-26 4 -30 10 -33
43 l-3 38 108 -3 108 -3 5 -280z m2278 -92 l2 -373 -75 0 -75 0 0 323 c0 342
-1 347 -47 347 -20 0 -23 5 -23 40 l0 41 108 -3 107 -3 3 -372z m-6433 157
c67 -31 102 -64 137 -130 21 -41 23 -60 26 -222 l4 -178 -312 0 -311 0 3 48 3
47 233 3 234 2 -4 133 c-4 147 -14 179 -70 219 -28 19 -45 23 -112 23 -76 0
-79 -1 -105 -32 -23 -28 -34 -33 -69 -33 l-42 0 0 64 0 65 53 10 c131 27 246
21 332 -19z m1545 -14 c97 -36 179 -113 194 -182 7 -30 3 -35 -112 -130 l-119
-99 226 -3 c263 -3 251 -7 251 98 0 73 -10 90 -52 90 -26 0 -28 3 -28 40 l0
40 110 0 110 0 0 -90 c0 -139 30 -180 130 -180 81 0 83 4 88 114 6 129 1 146
-43 146 -34 0 -35 1 -35 40 l0 40 109 0 109 0 4 -141 3 -141 33 -29 c30 -27
38 -29 112 -29 l80 0 0 43 c0 24 -3 99 -7 165 l-6 122 -34 0 c-33 0 -33 1 -33
45 l0 46 108 -3 107 -3 0 -255 0 -255 -128 -3 c-147 -3 -183 8 -218 64 -11 19
-24 34 -27 34 -4 0 -14 -13 -24 -29 -9 -16 -28 -37 -42 -46 -29 -19 -127 -31
-180 -21 -37 7 -92 54 -106 90 -8 20 -8 20 -18 -5 -16 -39 -67 -77 -115 -84
-23 -4 -157 -5 -297 -3 -225 3 -259 5 -289 21 -33 19 -35 18 -98 -2 -57 -19
-87 -21 -287 -21 l-223 0 -29 -41 c-15 -22 -50 -61 -77 -85 -49 -44 -51 -45
-111 -42 -61 3 -61 3 -64 35 -3 29 1 34 41 53 24 11 57 34 72 50 l29 30 -166
0 -166 0 -24 68 c-16 49 -23 89 -23 147 1 69 4 87 30 134 37 66 92 114 164
143 48 18 77 21 206 22 l150 1 3 -207 2 -208 190 0 c105 0 190 1 190 3 0 1
-51 45 -114 97 -65 54 -115 103 -115 113 -3 68 82 157 191 199 96 38 270 39
368 4z m-1802 -1125 c23 -14 10 -46 -21 -49 l-27 -3 0 -101 0 -100 85 88 c84
89 99 114 69 114 -11 0 -14 8 -12 28 l3 27 85 0 85 0 3 -27 c3 -22 -1 -28 -15
-28 -10 0 -54 -35 -96 -78 l-78 -79 77 -114 c45 -67 86 -118 100 -123 16 -7
24 -18 24 -33 0 -22 -4 -23 -70 -23 -66 0 -70 1 -70 23 0 12 -28 63 -62 114
l-63 92 -32 -31 c-30 -29 -33 -38 -33 -90 0 -58 0 -58 30 -58 25 0 30 -4 30
-25 l0 -25 -105 0 -105 0 0 25 c0 17 5 25 18 25 38 0 42 18 42 196 0 95 -3
179 -6 188 -3 9 -17 16 -30 16 -18 0 -24 5 -24 23 0 13 3 27 7 30 9 10 176 8
191 -2z m442 -11 c24 -24 25 -43 4 -64 -20 -21 -43 -20 -66 1 -24 22 -23 49 4
67 29 20 34 20 58 -4z m1355 10 c6 0 24 1 40 3 l30 2 0 -70 0 -70 -30 0 c-26
0 -30 4 -33 28 -4 36 -58 62 -111 53 -41 -6 -61 -28 -61 -67 0 -39 21 -56 99
-79 127 -39 151 -65 151 -167 0 -52 -3 -59 -39 -94 -46 -43 -107 -57 -179 -41
-23 6 -60 8 -82 5 l-40 -6 0 77 0 77 33 -3 c26 -2 33 -8 35 -30 4 -33 21 -48
67 -58 45 -10 101 5 115 30 16 29 12 68 -9 89 -11 11 -52 29 -91 41 -97 29
-131 61 -138 128 -5 61 10 105 47 131 37 26 57 30 126 25 33 -2 65 -4 70 -4z
m1322 2 c9 -6 13 -67 15 -227 3 -220 3 -220 26 -223 16 -3 22 -10 22 -28 0
-23 -3 -24 -61 -24 -52 0 -62 3 -66 19 -5 19 -6 19 -41 -2 -50 -29 -128 -28
-172 3 -82 59 -95 233 -22 313 44 49 140 64 201 32 l31 -16 0 51 c0 49 -1 50
-30 50 -25 0 -30 4 -30 23 0 13 3 27 7 30 9 10 105 8 120 -1z m403 -27 c0 -21
-5 -25 -30 -25 l-30 0 0 -155 c0 -211 13 -235 125 -235 48 0 60 4 80 26 24 26
25 30 25 195 l0 169 -30 0 c-25 0 -30 4 -30 25 0 25 1 25 90 25 87 0 90 -1 90
-23 0 -14 -9 -26 -22 -32 -22 -10 -23 -16 -28 -180 -5 -186 -9 -198 -67 -242
-33 -25 -44 -28 -118 -28 -96 0 -144 20 -178 75 -20 31 -23 53 -27 205 -5 167
-5 170 -27 173 -17 3 -23 10 -23 28 0 24 1 24 100 24 l100 0 0 -25z m878 13
c28 -28 7 -78 -33 -78 -27 0 -45 18 -45 45 0 27 18 45 45 45 12 0 26 -5 33
-12z m1603 -9 c16 -31 -6 -69 -41 -69 -31 0 -50 17 -50 45 0 29 19 45 52 45
18 0 31 -7 39 -21z m179 -48 l0 -50 43 -3 c38 -3 42 -6 45 -30 3 -27 2 -28
-42 -28 l-46 0 0 -123 c0 -136 4 -147 57 -147 28 0 33 -3 33 -25 0 -30 -31
-40 -93 -32 -70 10 -77 27 -77 188 l0 139 -25 0 c-21 0 -25 5 -25 30 0 25 4
30 25 30 23 0 25 3 25 50 l0 50 40 0 40 0 0 -49z m-5281 -76 c13 -12 17 -43
19 -156 3 -129 5 -142 23 -146 12 -3 19 -14 19 -29 0 -24 -2 -24 -90 -24 -89
0 -90 0 -90 25 0 20 5 25 25 25 l25 0 0 125 c0 124 0 126 -25 135 -17 6 -40 5
-75 -6 l-50 -15 0 -119 0 -120 25 0 c20 0 25 -5 25 -25 0 -25 0 -25 -95 -25
-94 0 -95 0 -95 24 0 18 6 25 23 28 21 3 22 7 25 136 l3 132 -26 0 c-21 0 -25
5 -25 30 l0 30 64 0 c56 0 66 -3 71 -20 7 -23 16 -25 32 -9 7 7 33 17 59 24
54 13 108 5 133 -20z m362 25 l80 0 -3 -27 c-2 -20 -9 -29 -24 -31 -20 -3 -21
-6 -12 -36 9 -27 7 -41 -8 -72 -26 -54 -73 -76 -146 -71 -49 3 -58 1 -58 -14
0 -22 28 -29 118 -29 68 0 76 -2 103 -29 33 -33 36 -64 14 -117 -21 -50 -77
-73 -178 -74 -90 0 -138 17 -156 56 -17 37 -14 50 19 88 18 20 26 37 20 41
-15 9 -12 66 5 85 13 14 12 21 -6 57 -25 51 -18 100 20 137 26 25 93 48 119
40 8 -2 50 -4 93 -4z m911 -4 c67 -12 78 -38 78 -188 0 -121 1 -130 20 -135
32 -9 26 -50 -8 -58 -32 -7 -78 7 -84 26 -3 9 -11 8 -33 -3 -48 -24 -83 -29
-124 -18 -54 14 -83 49 -83 102 -2 88 44 123 160 122 71 0 72 1 72 26 0 45
-26 70 -73 70 -23 -1 -53 -7 -67 -15 -14 -8 -35 -14 -47 -15 -19 0 -23 5 -23
34 0 31 3 34 43 45 49 13 96 19 117 15 8 -1 32 -5 52 -8z m-1720 -153 c3 -153
4 -158 26 -168 13 -6 22 -18 22 -32 0 -22 -3 -23 -90 -23 -89 0 -90 0 -90 24
0 18 6 25 23 28 21 3 22 7 25 136 l3 132 -26 0 c-21 0 -25 5 -25 30 l0 30 65
0 64 0 3 -157z m1996 2 c2 -104 6 -152 15 -157 19 -12 64 -9 102 6 l35 15 0
115 0 116 -25 0 c-21 0 -25 5 -25 30 l0 30 70 0 70 0 2 -162 c3 -160 3 -163
26 -166 16 -3 22 -10 22 -28 0 -23 -3 -24 -64 -24 -55 0 -66 3 -71 19 -6 19
-7 19 -42 -1 -24 -15 -53 -21 -95 -22 -54 -1 -62 2 -84 27 -23 27 -24 35 -24
162 0 131 0 134 -22 137 -17 2 -24 11 -26 31 l-3 28 68 -3 68 -3 3 -150z
m1510 128 l3 -22 41 21 c23 12 64 24 93 26 44 4 56 1 81 -21 l29 -25 3 -141
c3 -133 5 -141 23 -141 16 0 20 -6 17 -27 l-3 -28 -85 0 -85 0 -3 28 c-3 23 0
27 22 27 l26 0 0 118 c0 78 -4 122 -12 130 -17 17 -60 15 -108 -4 l-40 -16 0
-113 0 -114 28 -3 c19 -2 28 -9 30 -25 4 -28 -20 -35 -113 -31 -68 3 -70 4
-73 30 -3 21 1 27 20 30 23 3 23 5 23 133 0 127 0 130 -22 133 -18 3 -23 10
-23 33 l0 30 63 -3 c55 -3 62 -5 65 -25z m452 -138 c5 -158 5 -160 28 -163 19
-3 23 -9 20 -30 -3 -27 -3 -27 -88 -27 -85 0 -85 0 -88 27 -3 21 1 27 20 30
22 3 23 7 26 113 3 131 -1 155 -29 155 -22 0 -34 22 -25 45 4 13 19 15 68 13
l63 -3 5 -160z m218 133 c3 -24 0 -28 -22 -28 -14 0 -26 -1 -26 -3 0 -5 82
-221 85 -225 4 -5 75 190 75 209 0 13 -7 19 -21 19 -16 0 -20 5 -17 28 3 27 4
27 81 30 l77 3 0 -29 c0 -20 -6 -31 -18 -34 -12 -4 -32 -41 -61 -114 -82 -206
-87 -214 -118 -214 -15 0 -33 4 -39 8 -6 4 -39 77 -73 164 -46 114 -67 157
-82 161 -18 5 -26 37 -12 51 4 4 43 5 88 4 79 -3 80 -3 83 -30z m502 14 c44
-23 80 -90 80 -149 l0 -43 -130 0 -130 0 0 -31 c0 -20 10 -40 29 -60 37 -36
104 -41 144 -9 14 11 37 20 51 20 22 0 26 -4 26 -30 0 -44 -44 -64 -145 -65
-95 0 -138 20 -172 81 -32 55 -32 163 0 218 43 77 166 110 247 68z m258 -9 l3
-22 36 25 c20 13 49 24 64 24 27 0 29 -3 29 -39 l0 -38 -50 -5 c-77 -8 -80
-14 -80 -139 l0 -109 31 0 c27 0 30 -3 27 -27 l-3 -28 -90 0 -90 0 -3 28 c-3
22 1 27 17 27 20 0 21 5 21 135 0 129 -1 135 -20 135 -23 0 -35 22 -26 45 4
13 19 15 68 13 56 -3 63 -5 66 -25z m411 16 c29 -10 32 -15 29 -48 -2 -28 -8
-37 -25 -39 -12 -2 -31 6 -42 17 -14 14 -34 21 -59 21 -49 0 -75 -19 -70 -51
3 -21 12 -26 78 -42 41 -10 85 -27 96 -38 45 -42 36 -132 -17 -170 -37 -26
-135 -36 -196 -20 -42 12 -43 12 -43 56 0 38 3 45 20 45 10 0 30 -11 44 -25
32 -32 96 -35 126 -5 40 40 22 63 -61 81 -72 15 -108 35 -119 65 -23 60 -1
121 52 147 39 19 140 22 187 6z m201 -154 c5 -158 5 -160 28 -163 19 -3 23 -9
20 -30 -3 -27 -3 -27 -88 -27 -85 0 -85 0 -88 27 -3 21 1 27 20 30 23 3 23 5
23 133 0 127 0 130 -22 133 -18 3 -23 10 -23 33 l0 30 63 -3 62 -3 5 -160z
m470 136 c0 -24 -5 -30 -24 -33 l-24 -3 41 -102 c23 -56 44 -100 47 -97 11 11
78 189 73 197 -2 4 -13 7 -24 7 -16 0 -20 6 -17 28 3 27 3 27 83 27 75 0 80
-1 83 -22 3 -17 -3 -26 -22 -33 -14 -5 -26 -14 -26 -19 0 -5 -34 -84 -75 -177
-86 -195 -124 -244 -187 -244 -33 0 -38 3 -38 23 0 14 10 29 28 39 51 31 73
58 66 81 -22 72 -129 297 -140 297 -9 0 -14 11 -14 30 l0 30 85 0 85 0 0 -29z"/>
<path d="M10237 3830 c-3 -8 -12 -37 -20 -65 -16 -56 -6 -53 -132 -40 l-70 7
50 -27 c28 -14 58 -34 68 -44 18 -17 15 -18 -70 -17 -94 0 -168 -14 -246 -48
l-49 -21 99 0 c92 0 203 -19 203 -34 0 -4 -23 -15 -50 -25 -104 -38 -201 -117
-264 -218 l-21 -33 25 17 c108 76 218 127 305 144 l40 7 -28 -37 c-16 -20 -37
-56 -47 -79 -18 -41 -52 -167 -45 -167 2 0 14 19 28 43 46 78 156 187 189 187
9 0 9 -358 -1 -545 -6 -120 -6 -120 -30 -117 -23 2 -24 1 -8 -16 25 -27 21
-31 -25 -25 -54 7 -47 0 39 -41 l69 -33 65 33 64 33 -39 1 -38 0 17 26 c16 25
16 26 -3 20 -17 -6 -20 0 -25 76 -4 46 -7 197 -7 336 l0 253 23 -12 c50 -26
101 -76 148 -142 27 -39 49 -64 49 -56 -1 54 -58 195 -92 226 -80 72 125 11
260 -77 39 -27 72 -44 72 -40 0 13 -69 102 -104 133 -49 45 -106 79 -171 103
-59 22 -59 22 -33 33 53 20 162 34 227 28 80 -8 69 2 -44 39 -62 21 -102 27
-177 28 -94 1 -96 1 -80 20 9 10 37 29 62 43 l45 24 -60 -5 c-33 -3 -73 -8
-90 -11 -30 -6 -30 -5 -51 62 -13 40 -23 62 -27 53z"/>
<path d="M9672 2624 c126 -23 257 -79 416 -177 45 -29 81 -56 79 -62 -2 -5
-27 -27 -57 -47 -43 -31 -56 -35 -72 -27 -23 12 -33 5 -33 -24 0 -13 -15 -32
-41 -49 -34 -25 -44 -28 -68 -19 -33 13 -66 -1 -66 -28 0 -59 98 -50 208 20
18 11 26 11 42 1 32 -20 42 -15 35 17 -6 27 -2 31 60 70 37 23 70 41 73 39 4
-2 35 -20 69 -42 57 -35 62 -40 56 -67 -6 -32 -4 -34 30 -18 20 9 34 5 91 -25
73 -39 134 -47 156 -21 29 34 -19 74 -64 54 -19 -9 -31 -5 -68 20 -38 26 -45
35 -40 56 5 28 0 30 -29 15 -16 -9 -30 -3 -80 32 l-61 42 24 19 c47 39 214
131 296 165 47 19 124 42 171 52 84 18 85 19 35 19 -159 2 -380 -70 -541 -176
-48 -33 -55 -35 -71 -21 -37 33 -162 99 -247 132 -97 37 -247 67 -329 65 -50
-1 -50 -1 26 -15z"/>
<path d="M9950 1819 c-30 -11 -80 -30 -110 -41 -30 -12 -90 -23 -132 -26 -43
-2 -78 -8 -78 -12 0 -6 12 -64 60 -285 6 -27 24 -110 39 -183 16 -73 31 -136
34 -139 7 -6 125 20 186 42 91 32 234 7 279 -48 13 -15 17 -14 50 12 74 57
157 65 287 27 44 -13 98 -26 121 -30 l40 -7 62 288 c35 158 65 298 67 311 5
21 2 22 -52 22 -74 1 -123 12 -236 56 -80 31 -100 36 -159 32 -84 -5 -109 -25
-143 -119 -13 -35 -25 -57 -28 -49 -22 70 -43 116 -62 138 -20 24 -31 27 -96
29 -56 3 -87 -2 -129 -18z m30 -364 l0 -135 -30 0 -30 0 0 95 0 95 -25 -6
c-22 -5 -25 -3 -25 20 0 19 9 30 38 45 72 38 72 38 72 -114z m209 111 c26 -23
45 -98 37 -141 -14 -72 -94 -124 -164 -106 -19 5 -28 15 -30 33 -3 25 -1 26
48 24 44 -1 54 3 68 22 15 23 15 24 -14 22 -83 -6 -114 16 -114 79 0 32 6 44
32 66 27 23 39 26 75 22 24 -2 52 -12 62 -21z m221 -6 c0 -30 -1 -30 -55 -30
-48 0 -55 -2 -55 -20 0 -17 7 -20 43 -20 55 0 82 -26 82 -80 0 -69 -69 -111
-147 -89 -31 8 -38 14 -38 34 0 25 1 25 54 19 53 -6 55 -6 61 19 11 41 -1 49
-56 42 l-49 -7 0 81 0 81 80 0 80 0 0 -30z m200 -2 c-1 -18 -20 -78 -43 -133
-40 -95 -44 -100 -75 -103 -44 -4 -42 12 13 112 25 46 45 86 45 90 0 3 -27 6
-60 6 l-60 0 0 30 0 30 90 0 90 0 0 -32z"/>
<path d="M10084 1514 c-9 -35 15 -59 50 -50 14 3 26 13 26 22 0 53 -64 77 -76
28z"/>
<path d="M5432 3651 c-50 -32 -68 -71 -81 -177 -6 -52 -18 -111 -26 -130 l-14
-34 47 -27 c40 -24 58 -28 122 -28 142 1 185 54 178 220 -3 100 -14 126 -70
168 -39 29 -115 33 -156 8z"/>
<path d="M1845 3636 c-64 -29 -95 -90 -95 -184 0 -77 18 -128 57 -162 30 -27
41 -30 99 -30 64 0 109 14 147 48 15 13 17 34 17 159 l0 144 -37 16 c-51 22
-150 27 -188 9z"/>
<path d="M3635 3615 c-5 -2 -29 -9 -53 -15 -44 -11 -112 -63 -112 -85 0 -12
221 -205 235 -205 5 0 189 152 224 185 33 32 -25 85 -122 111 -47 13 -148 18
-172 9z"/>
<path d="M7297 2499 c-41 -31 -57 -69 -68 -166 -6 -47 -17 -104 -25 -126 -13
-36 -12 -41 3 -54 38 -29 88 -43 157 -43 128 0 175 56 176 204 0 94 -25 157
-74 187 -44 27 -132 25 -169 -2z"/>
<path d="M3280 2457 c-48 -16 -94 -45 -109 -69 -16 -25 -14 -27 121 -140 l109
-90 116 99 c64 54 118 104 121 111 7 21 -57 71 -111 87 -59 18 -196 19 -247 2z"/>
<path d="M2587 2438 c-71 -19 -127 -98 -127 -179 0 -14 7 -49 15 -77 l16 -52
109 0 110 0 0 160 0 160 -42 -1 c-24 -1 -60 -6 -81 -11z"/>
<path d="M4687 1230 c-48 -30 -64 -156 -27 -217 31 -51 99 -56 148 -11 20 19
22 31 22 114 0 70 -4 95 -15 104 -21 17 -105 23 -128 10z"/>
<path d="M2895 1225 c-47 -46 -21 -105 45 -105 41 0 70 26 70 63 0 24 -44 67
-70 67 -11 0 -32 -11 -45 -25z"/>
<path d="M2850 930 c-26 -49 32 -88 111 -75 39 7 79 34 79 54 0 28 -34 41
-105 41 -65 0 -76 -3 -85 -20z"/>
<path d="M3823 1075 c-31 -21 -31 -68 -1 -89 30 -21 56 -20 96 4 29 18 33 25
30 58 -3 37 -3 37 -53 40 -33 2 -57 -3 -72 -13z"/>
<path d="M6772 1233 c-13 -5 -42 -55 -42 -73 0 -6 32 -10 85 -10 82 0 85 1 85
23 0 37 -35 67 -78 66 -20 0 -43 -3 -50 -6z"/>
</g>
</svg>
